<?xml version="1.0" encoding="UTF-8"?>
<svg id="Layer_2" data-name="Layer 2" xmlns="http://www.w3.org/2000/svg" xmlns:xlink="http://www.w3.org/1999/xlink" viewBox="0 0 1147.78 199.5">
  <defs>
    <style>
      .cls-1 {
        fill: #fdb913;
      }

      .cls-2 {
        fill: url(#linear-gradient);
      }
    </style>
    <linearGradient id="linear-gradient" x1="0" y1="116.26" x2="182.9" y2="116.26" gradientUnits="userSpaceOnUse">
      <stop offset=".3" stop-color="#fdb913"/>
      <stop offset=".75" stop-color="#f7941f"/>
    </linearGradient>
  </defs>
  <g id="Layer_1-2" data-name="Layer 1">
    <g>
      <g>
        <path class="cls-1" d="M164.11,155.26c-.86,1.56-2.96,2.28-4.81,2.8l-21.14,5.98c-1.86,.52-4.18,.95-5.73,.06-1.54-.88-2.32-3.07-2.82-4.92C98.9,44.63,94.67,19.93,82.31,19.93s-16.6,24.7-47.3,139.25c-.49,1.85-1.28,4.04-2.82,4.92-1.56,.89-3.87,.46-5.73-.06l-21.15-5.98c-1.85-.53-3.94-1.24-4.8-2.8-.84-1.52-.49-3.87,0-5.67C31.9,32.95,49.49,0,82.31,0s50.41,32.95,81.8,149.59c.49,1.8,.84,4.15,0,5.67Z"/>
        <path class="cls-2" d="M182.9,81.58c0,1.32-.25,1.84-.76,3.24l-.88,2.41c-.5,1.39-1.22,2.83-2.43,3.51-1.22,.68-2.94,.58-4.4,.26-56.78-12.61-114.76,16.33-139.01,68.88-.88,1.91-2.24,4.74-5.33,4.74-1.15,0-2.05-.13-3.64-.58l-21.15-5.97h-.05c-2.45-.71-5.26-1.65-5.26-4.96,0-1.34,.53-2.77,1.14-4.09C32.35,82.07,110.1,50.9,178.69,77.24c1.63,.63,4.21,1.63,4.21,4.34Z"/>
      </g>
      <g>
        <path d="M505.64,115.18c0,25.51-12.28,49.43-40.9,49.43-10.78,0-18.36-3.68-23.5-8.76l-2.35,8.76h-13.94V38.53h17.69V116.38c0,15.77,3.81,32.86,22.73,32.77,18.34-.09,22.38-17.91,22.38-32.77s-4.04-32.57-22.38-32.64c-3.65-.02-7.91,.84-11.23,2.1v-14.38c2.99-1.13,8.86-3.13,15.34-3.13,25.03,0,36.16,24.76,36.16,46.85Zm-160.29,49.43h17.69V38.53h-17.69v126.08Zm316.51-96.28c-6.48,0-12.35,2-15.34,3.13v14.38c3.32-1.26,7.58-2.12,11.23-2.1,18.34,.07,22.38,17.79,22.38,32.64s-4.03,32.68-22.38,32.77c-18.92,.09-22.73-16.99-22.73-32.77V38.53h-17.69v126.08h13.94l2.35-8.76c5.14,5.08,12.71,8.76,23.5,8.76,28.62,0,40.9-23.92,40.9-49.43,0-22.09-11.13-46.85-36.16-46.85Zm125.74,71.37v-33.01c0-26.01-16.77-38.28-36.1-38.28-20.42,0-34.77,13.27-34.77,13.27l8.45,12.07c1.9-1.52,12.05-9.12,25.35-9.12,11.35,0,20.55,5.15,20.55,22.63v20.54c0,15.36-15.59,21.94-26.14,21.94-9.35,0-16.22-3.75-16.22-12.03,0-14.02,19.24-18.22,30.86-17.62v-13.48c-25.47-1.32-48.3,9.27-48.3,32.19,0,15.94,12.36,25.8,30.88,25.8,13.88,0,25.86-5.35,31.72-11.2,3.14,8.03,11.66,11.2,18.28,11.2l3.47-12.94c-5.59-1.25-8.03-3.91-8.03-11.97Zm-192.38,0v-33.01c0-26.01-16.77-38.28-36.1-38.28-20.42,0-34.77,13.27-34.77,13.27l8.45,12.07c1.9-1.52,12.05-9.12,25.35-9.12,11.35,0,20.55,5.15,20.55,22.63v20.54c0,15.36-15.59,21.94-26.14,21.94-9.35,0-16.22-3.75-16.22-12.03,0-14.02,19.24-18.22,30.86-17.62v-13.48c-25.47-1.32-48.3,9.27-48.3,32.19,0,15.94,12.36,25.8,30.88,25.8,13.88,0,25.86-5.35,31.72-11.2,3.14,8.03,11.66,11.2,18.28,11.2l3.47-12.94c-5.59-1.25-8.03-3.91-8.03-11.97Zm-271.99,0v-33.01c0-26.01-16.77-38.28-36.1-38.28-20.42,0-34.77,13.27-34.77,13.27l8.45,12.07c1.9-1.52,12.05-9.12,25.35-9.12,11.35,0,20.55,5.15,20.55,22.63v20.54c0,15.36-15.59,21.94-26.14,21.94-9.35,0-16.22-3.75-16.22-12.03,0-14.02,19.24-18.22,30.86-17.62v-13.48c-25.47-1.32-48.3,9.27-48.3,32.19,0,15.94,12.36,25.8,30.88,25.8,13.88,0,25.86-5.35,31.72-11.2,3.14,8.03,11.66,11.2,18.28,11.2l3.47-12.94c-5.59-1.25-8.03-3.91-8.03-11.97Zm61.92,24.91h17.69V71.26h-17.69v93.35Zm0-108.39h17.69v-17.69h-17.69v17.69Z"/>
        <path d="M505.64,115.18c0,25.51-12.28,49.43-40.9,49.43-10.78,0-18.36-3.68-23.5-8.76l-2.35,8.76h-13.94V38.53h17.69V116.38c0,15.77,3.81,32.86,22.73,32.77,18.34-.09,22.38-17.91,22.38-32.77s-4.04-32.57-22.38-32.64c-3.65-.02-7.91,.84-11.23,2.1v-14.38c2.99-1.13,8.86-3.13,15.34-3.13,25.03,0,36.16,24.76,36.16,46.85Zm-160.29,49.43h17.69V38.53h-17.69v126.08Zm316.51-96.28c-6.48,0-12.35,2-15.34,3.13v14.38c3.32-1.26,7.58-2.12,11.23-2.1,18.34,.07,22.38,17.79,22.38,32.64s-4.03,32.68-22.38,32.77c-18.92,.09-22.73-16.99-22.73-32.77V38.53h-17.69v126.08h13.94l2.35-8.76c5.14,5.08,12.71,8.76,23.5,8.76,28.62,0,40.9-23.92,40.9-49.43,0-22.09-11.13-46.85-36.16-46.85Zm125.74,71.37v-33.01c0-26.01-16.77-38.28-36.1-38.28-20.42,0-34.77,13.27-34.77,13.27l8.45,12.07c1.9-1.52,12.05-9.12,25.35-9.12,11.35,0,20.55,5.15,20.55,22.63v20.54c0,15.36-15.59,21.94-26.14,21.94-9.35,0-16.22-3.75-16.22-12.03,0-14.02,19.24-18.22,30.86-17.62v-13.48c-25.47-1.32-48.3,9.27-48.3,32.19,0,15.94,12.36,25.8,30.88,25.8,13.88,0,25.86-5.35,31.72-11.2,3.14,8.03,11.66,11.2,18.28,11.2l3.47-12.94c-5.59-1.25-8.03-3.91-8.03-11.97Zm-192.38,0v-33.01c0-26.01-16.77-38.28-36.1-38.28-20.42,0-34.77,13.27-34.77,13.27l8.45,12.07c1.9-1.52,12.05-9.12,25.35-9.12,11.35,0,20.55,5.15,20.55,22.63v20.54c0,15.36-15.59,21.94-26.14,21.94-9.35,0-16.22-3.75-16.22-12.03,0-14.02,19.24-18.22,30.86-17.62v-13.48c-25.47-1.32-48.3,9.27-48.3,32.19,0,15.94,12.36,25.8,30.88,25.8,13.88,0,25.86-5.35,31.72-11.2,3.14,8.03,11.66,11.2,18.28,11.2l3.47-12.94c-5.59-1.25-8.03-3.91-8.03-11.97Zm-271.99,0v-33.01c0-26.01-16.77-38.28-36.1-38.28-20.42,0-34.77,13.27-34.77,13.27l8.45,12.07c1.9-1.52,12.05-9.12,25.35-9.12,11.35,0,20.55,5.15,20.55,22.63v20.54c0,15.36-15.59,21.94-26.14,21.94-9.35,0-16.22-3.75-16.22-12.03,0-14.02,19.24-18.22,30.86-17.62v-13.48c-25.47-1.32-48.3,9.27-48.3,32.19,0,15.94,12.36,25.8,30.88,25.8,13.88,0,25.86-5.35,31.72-11.2,3.14,8.03,11.66,11.2,18.28,11.2l3.47-12.94c-5.59-1.25-8.03-3.91-8.03-11.97Zm61.92,24.91h17.69V71.26h-17.69v93.35Zm0-108.39h17.69v-17.69h-17.69v17.69Z"/>
        <g>
          <path d="M966.07,111.16v53.46h-10.55v-53.46c0-18.17-9.28-29.91-23.64-29.91s-23.4,11.44-23.63,29.21h0c0,.23,0,54.16,0,54.16h-10.56v-53.46c0-18.17-9.28-29.92-23.64-29.92s-23.4,11.44-23.63,29.22h-.01v.7s-.01,53.46-.01,53.46h-10.54V72h10.54v10.48h1.03l.21-.24c5.7-6.69,13.97-10.23,23.91-10.23,13.78,0,23.83,6.63,28.91,18.45,5.09-11.82,15.13-18.45,28.92-18.45,20.47,0,32.69,14.64,32.69,39.15Z"/>
          <path d="M1013.96,164.61c-17.44,0-29.15-9.77-29.15-24.32,0-22.07,22.6-30.27,43.76-30.27h5v8.57h-4.33c-16.84,0-33.88,7.09-33.88,20.63,0,9.56,7.94,15.99,19.75,15.99,13.85,0,28.76-9.15,28.76-29.24v-17.68c0-16.8-9.01-26.83-24.09-26.83-11.77,0-21.82,6.08-26.13,9.15l-4.93-7.46c3.96-3.08,15.83-11.14,31.4-11.14,16.54,0,34.22,9.54,34.22,36.3v38.52c0,6.91,4.92,8.68,6.91,9.12l-2.33,8.67c-7.21-.22-12.96-4.87-14.75-11.96l-.31-1.22-.88,.9c-1.78,1.82-3.48,3.27-3.8,3.54-2.03,1.71-4.36,3.22-6.92,4.5-2.55,1.27-5.38,2.31-8.41,3.08-3.06,.77-6.39,1.17-9.91,1.17Z"/>
          <path d="M1147.78,72.04v90.02c0,5.79-.86,11.06-2.57,15.67-1.7,4.59-4.15,8.55-7.29,11.78-3.11,3.2-6.93,5.69-11.36,7.41-4.42,1.71-9.42,2.58-14.88,2.58-2.83,0-5.74-.33-8.65-.96-2.94-.65-5.81-1.61-8.52-2.87-2.77-1.3-5.39-2.91-7.77-4.78-2.43-1.9-4.58-4.19-6.42-6.8l-.09-.12,6.54-5.57c3.44,4.1,7.14,7.17,10.99,9.12,3.99,2.04,8.46,3.08,13.27,3.08,4.21,0,7.97-.65,11.18-1.92,3.22-1.27,5.99-3.13,8.2-5.54,2.23-2.42,3.95-5.4,5.11-8.84,1.17-3.45,1.77-7.43,1.77-11.85v-35.39c0-14.57-.9-22.6-3.19-28.61-3.01-7.89-9.31-17.28-22.24-17.28-4.5,0-8.42,.95-11.68,2.82-3.26,1.87-5.98,4.47-8.09,7.72-2.13,3.27-3.74,7.19-4.76,11.65-1.02,4.39-1.56,9.49-1.56,14.74s.51,10.87,1.56,15.34c1.02,4.41,2.62,8.31,4.76,11.6,2.11,3.25,4.82,5.83,8.05,7.68,3.22,1.84,7.11,2.77,11.56,2.77,8.47,0,14.58-2.46,17.05-3.7v9.15c-1.58,.81-7.91,3.68-18.87,3.68-5.35,0-10.23-1.13-14.5-3.37-4.23-2.22-7.9-5.38-10.91-9.41-2.98-4-5.29-8.85-6.87-14.43-1.58-5.65-2.36-12.63-2.36-19.25,0-7.08,.82-13.7,2.37-19.21,1.57-5.61,3.88-10.46,6.86-14.42,2.98-3.99,6.67-7.1,10.96-9.25,4.06-2.04,9.86-3.26,15.51-3.26,15.34,0,22.83,8.54,25.33,12.22l.23,.32h1.14v-12.52h10.14Z"/>
        </g>
      </g>
    </g>
  </g>
</svg>